<svg xmlns="http://www.w3.org/2000/svg" viewBox="0 0 120 90" width="120" height="90">
  <g transform="translate(45, 12) scale(2.2)">
    <path fill="#3776ab" d="M14.25,0.18C8.52,0.18,4.18,1.44,4.18,5.43v2.85h10.36v1.44H4.18c-3.18,0-4.18,1.83-4.18,4.68v7.41c0,2.85,1.14,4.68,4.18,4.68h2.52v-3.56c0-3.3,2.46-5.83,5.75-5.83h9.34c2.85,0,4.68-1.83,4.68-4.68V5.07c0-2.85-2.02-4.89-4.89-4.89C21.58,0.18,17.25,0.18,14.25,0.18z M9.94,2.2c0.79,0,1.44,0.65,1.44,1.44S10.73,5.08,9.94,5.08s-1.44-0.65-1.44-1.44S9.15,2.2,9.94,2.2z"/>
    <path fill="#ffd343" d="M14.25,29.82c5.73,0,10.07-1.26,10.07-5.25v-2.85H13.96v-1.44h10.36c3.18,0,4.18-1.83,4.18-4.68v-7.41c0-2.85-1.14-4.68-4.18-4.68h-2.52v3.56c0,3.3-2.46,5.83-5.75,5.83H6.71c-2.85,0-4.68,1.83-4.68,4.68v7.41c0,2.85,2.02,4.89,4.89,4.89C9.42,29.82,13.75,29.82,14.25,29.82z M18.56,27.8c-0.79,0-1.44-0.65-1.44-1.44s0.65-1.44,1.44-1.44s1.44,0.65,1.44,1.44S19.35,27.8,18.56,27.8z"/>
  </g>
</svg>
