<svg xmlns="http://www.w3.org/2000/svg" viewBox="0 0 120 90" width="120" height="90">
  <g transform="translate(60, 45) scale(1.3)">
    <path fill="#00758F" d="M-18,-15 C-18,-20 18,-20 18,-15 L18,-5 C18,0 -18,0 -18,-5 Z"/>
    <ellipse cx="0" cy="-15" rx="18" ry="5" fill="#f29111"/>
    <path fill="#005A6F" d="M-18,-2 C-18,-7 18,-7 18,-2 L18,8 C18,13 -18,13 -18,8 Z"/>
    <ellipse cx="0" cy="-2" rx="18" ry="5" fill="#00758F"/>
    <path fill="#00404F" d="M-18,11 C-18,6 18,6 18,11 L18,21 C18,26 -18,26 -18,21 Z"/>
    <ellipse cx="0" cy="11" rx="18" ry="5" fill="#005A6F"/>
    <ellipse cx="0" cy="21" rx="18" ry="5" fill="#00404F"/>
  </g>
</svg>
